<?xml version="1.0" standalone="no"?>
<!DOCTYPE svg PUBLIC "-//W3C//DTD SVG 20010904//EN"
 "http://www.w3.org/TR/2001/REC-SVG-20010904/DTD/svg10.dtd">
<svg version="1.0" xmlns="http://www.w3.org/2000/svg"
 width="700.000000pt" height="700.000000pt" viewBox="0 0 700.000000 700.000000"
 preserveAspectRatio="xMidYMid meet">
<metadata>
Created by potrace 1.14, written by Peter Selinger 2001-2017
</metadata>
<g transform="translate(0.000000,700.000000) scale(0.100000,-0.100000)"
fill="#000000" stroke="none">
<path d="M3458 6392 c-34 -20 -43 -43 -124 -292 -36 -113 -78 -243 -94 -290
-15 -47 -74 -227 -130 -400 -105 -324 -207 -640 -265 -815 -18 -55 -38 -112
-45 -127 -27 -59 17 -56 -1066 -56 -938 0 -994 -1 -1023 -18 -30 -18 -36 -27
-51 -75 -17 -57 0 -73 391 -357 206 -149 379 -275 384 -279 6 -5 150 -109 320
-233 171 -124 315 -228 320 -233 6 -4 55 -40 110 -80 55 -40 105 -80 112 -88
32 -39 24 -76 -97 -439 -15 -47 -67 -206 -115 -355 -48 -148 -97 -301 -110
-340 -13 -38 -67 -205 -120 -370 -54 -165 -108 -331 -122 -370 -14 -38 -25
-84 -25 -102 0 -40 33 -88 69 -100 60 -21 58 -22 375 209 70 51 136 100 148
108 24 17 394 286 565 410 470 343 584 424 613 436 18 8 43 11 57 8 21 -5 139
-85 254 -171 13 -10 42 -31 66 -48 24 -16 303 -220 621 -451 319 -232 608
-441 644 -466 64 -44 88 -50 137 -34 26 8 63 64 63 96 0 19 -115 387 -200 640
-20 58 -108 328 -284 870 -138 427 -135 413 -113 453 10 18 56 59 105 94 48
35 160 116 249 180 88 65 273 199 410 298 136 98 253 183 258 188 6 4 116 85
245 178 344 249 343 248 362 277 32 48 16 117 -31 145 -27 16 -106 17 -1026
17 -869 0 -1000 2 -1025 15 -43 22 -30 -9 -164 405 -37 113 -89 273 -116 355
-49 152 -265 816 -340 1046 -27 84 -49 134 -65 149 -30 28 -91 34 -127 12z"/>
</g>
</svg>
